<svg width="11" height="10" viewBox="0 0 11 10" fill="none" xmlns="http://www.w3.org/2000/svg">
<g id="Frame 14591">
<g id="Vector">
<path d="M9.0845 2.95299L3.32208 8.7384C3.15528 8.90587 2.92865 9 2.69229 9H1.94615C1.69975 9 1.5 8.79849 1.5 8.55209V7.79942C1.5 7.56427 1.59316 7.33871 1.7591 7.17213L7.52299 1.38525C8.86143 0.265426 10.1999 1.83316 9.0845 2.95299Z" fill="white"/>
<path d="M6.97099 2.02658L8.48997 3.54558L6.97099 2.02658Z" fill="white"/>
<path d="M6.97099 2.02658L8.48997 3.54558M9.0845 2.95299L3.32208 8.7384C3.15528 8.90587 2.92865 9 2.69229 9H1.94615C1.69975 9 1.5 8.79849 1.5 8.55209V7.79942C1.5 7.56427 1.59316 7.33871 1.7591 7.17213L7.52299 1.38525C8.86143 0.265426 10.1999 1.83316 9.0845 2.95299Z" stroke="white" stroke-width="2" stroke-linecap="round" stroke-linejoin="round"/>
</g>
<path id="Vector_2" d="M5.5 1.46484L9.03389 4.99873" stroke="#007AFF" stroke-width="2" stroke-linejoin="round"/>
</g>
</svg>
