<svg width="9" height="11" viewBox="0 0 9 11" fill="none" xmlns="http://www.w3.org/2000/svg">
<path d="M4.40728 0.681152C2.08667 0.681152 0.23754 2.66463 0.865638 4.87234C1.10857 5.72511 1.41862 6.56525 1.81338 7.23483C2.9561 9.17724 3.76799 9.93999 4.16914 10.2274C4.34015 10.3522 4.55911 10.349 4.72692 10.2195C5.11049 9.92578 5.88562 9.15987 7.00757 7.23483C7.38794 6.58104 7.698 5.76933 7.94732 4.94183C8.04161 4.62915 8.08477 4.3212 8.08477 4.02116C8.08477 2.18455 6.42902 0.681152 4.40728 0.681152ZM4.40568 6.12939C3.34606 6.12939 2.48782 5.28136 2.48782 4.23435C2.48782 3.18734 3.34606 2.33931 4.40568 2.33931C5.46529 2.33931 6.32353 3.18734 6.32353 4.23435C6.32353 5.28136 5.46529 6.12939 4.40568 6.12939Z" fill="white"/>
</svg>
