<svg width="43" height="43" viewBox="0 0 43 43" fill="none" xmlns="http://www.w3.org/2000/svg">
<g clip-path="url(#clip0_1387_3893)">
<path d="M12.4795 20.51C12.0895 20.75 11.7895 21.09 11.5895 21.54C11.3795 22 11.2695 22.57 11.2695 23.26C11.2695 23.95 11.3795 24.52 11.5895 24.99C11.7995 25.44 12.0995 25.79 12.5095 26.03C12.9195 26.27 13.4595 26.41 14.1395 26.41H15.3395V20.14H14.0195C13.3795 20.14 12.8695 20.27 12.4795 20.51Z" fill="white"/>
<path d="M23.84 30.19C23.8 30.13 23.73 30.04 23.58 29.93C23.27 29.7 22.75 29.5 22.08 29.5C21.41 29.5 20.89 29.7 20.58 29.93C20.43 30.04 20.36 30.13 20.32 30.19C20.29 30.24 20.29 30.26 20.29 30.26C20.29 30.27 20.29 30.29 20.32 30.34C20.36 30.4 20.43 30.49 20.58 30.6C20.89 30.83 21.41 31.03 22.08 31.03C22.75 31.03 23.27 30.83 23.58 30.6C23.73 30.49 23.8 30.4 23.84 30.34C23.87 30.29 23.86 30.27 23.86 30.26C23.86 30.26 23.87 30.24 23.84 30.19Z" fill="white"/>
<path d="M31.33 20.47C30.95 20.24 30.45 20.11 29.82 20.11H28.54V26.16H29.71C30.38 26.16 30.9 26.03 31.3 25.8C31.7 25.57 32 25.23 32.2 24.79C32.4 24.34 32.51 23.79 32.51 23.12C32.51 22.46 32.4 21.91 32.2 21.46C32 21.02 31.71 20.7 31.33 20.47Z" fill="white"/>
<path d="M21.88 4.01001C12.42 4.01001 4.75 11.67 4.75 21.13C4.75 30.59 12.42 38.26 21.88 38.26C31.34 38.26 39 30.59 39 21.13C39 11.67 31.34 4.01001 21.88 4.01001ZM33.81 25.65C33.45 26.37 32.92 26.93 32.23 27.32C31.72 27.61 31.14 27.79 30.49 27.86C30.21 29.8 28.55 31.29 26.53 31.29H25.6C25.04 32.31 23.68 33.03 22.08 33.03C19.99 33.03 18.29 31.79 18.29 30.26C18.29 28.74 19.99 27.5 22.08 27.5C23.7 27.5 25.08 28.24 25.62 29.29H26.53C27.42 29.29 28.18 28.71 28.44 27.9H26.68V18.37H28.56C28.42 15.96 27.6 14.22 26.51 13.08C25.31 11.82 23.71 11.21 22.1 11.23C19.08 11.28 15.9 13.58 15.6 18.37H17.22V28.17H14.07C13.12 28.17 12.27 27.98 11.57 27.58C10.86 27.18 10.33 26.6 9.96 25.85C9.6 25.11 9.42 24.24 9.42 23.26C9.42 22.28 9.6 21.42 9.96 20.68C10.32 19.94 10.84 19.37 11.53 18.97C12.13 18.62 12.82 18.43 13.6 18.38C13.91 12.54 17.9 9.30001 22.06 9.23001C24.2 9.20001 26.35 10.01 27.96 11.7C29.45 13.26 30.43 15.52 30.56 18.41C31.19 18.48 31.76 18.66 32.27 18.95C32.94 19.34 33.46 19.9 33.81 20.62C34.16 21.33 34.33 22.17 34.33 23.12C34.33 24.08 34.16 24.92 33.81 25.65Z" fill="white"/>
<path d="M21.87 0C10.23 0 0.75 9.48 0.75 21.12C0.75 32.76 10.23 42.24 21.87 42.24C33.51 42.24 42.99 32.76 42.99 21.12C42.99 9.48 33.52 0 21.87 0ZM21.87 40.25C11.33 40.25 2.75 31.67 2.75 21.12C2.75 10.58 11.33 2 21.87 2C32.42 2 40.99 10.58 40.99 21.12C41 31.67 32.42 40.25 21.87 40.25Z" fill="white"/>
</g>
<defs>
<clipPath id="clip0_1387_3893">
<rect width="42.25" height="42.25" fill="white" transform="translate(0.75)"/>
</clipPath>
</defs>
</svg>
