<svg width="25" height="25" viewBox="0 0 25 25" fill="none" xmlns="http://www.w3.org/2000/svg">
<path d="M12.5036 0.429199C5.78649 0.429199 0.340332 5.86825 0.340332 12.5854C0.340332 19.3026 5.78649 24.7487 12.5036 24.7487C19.2208 24.7487 24.6599 19.3026 24.6599 12.5854C24.6599 5.86825 19.2208 0.429199 12.5036 0.429199ZM20.9747 15.7949C20.719 16.3061 20.3427 16.7038 19.8528 16.9807C19.4906 17.1866 19.0788 17.3144 18.6173 17.3641C18.4184 18.7416 17.2397 19.7996 15.8054 19.7996H15.1451C14.7474 20.5239 13.7818 21.0351 12.6457 21.0351C11.1616 21.0351 9.95453 20.1546 9.95453 19.0683C9.95453 17.989 11.1616 17.1085 12.6457 17.1085C13.796 17.1085 14.7758 17.6339 15.1593 18.3795H15.8054C16.4374 18.3795 16.977 17.9677 17.1616 17.3925H15.9119V10.6256H17.2468C17.1474 8.91441 16.5652 7.6789 15.7912 6.86944C14.9391 5.97476 13.8031 5.54162 12.6599 5.55583C10.5155 5.59133 8.25749 7.22447 8.04447 10.6256H9.19477V17.5842H6.95808C6.28353 17.5842 5.67998 17.4493 5.18294 17.1653C4.67879 16.8813 4.30246 16.4694 4.03974 15.9369C3.78412 15.4114 3.65631 14.7937 3.65631 14.0978C3.65631 13.402 3.78412 12.7913 4.03974 12.2659C4.29536 11.7404 4.66459 11.3357 5.15453 11.0517C5.58057 10.8032 6.07051 10.6683 6.62436 10.6327C6.84447 6.486 9.67761 4.18541 12.6315 4.13571C14.151 4.11441 15.6776 4.68955 16.8208 5.88955C17.8788 6.99725 18.5747 8.60198 18.667 10.6541C19.1143 10.7038 19.519 10.8316 19.8812 11.0375C20.3569 11.3144 20.7261 11.712 20.9747 12.2233C21.2232 12.7274 21.3439 13.3239 21.3439 13.9984C21.3439 14.6801 21.2232 15.2765 20.9747 15.7949Z" fill="white"/>
</svg>
